<?xml version="1.0" encoding="UTF-8"?>
<svg version="1.1" viewBox="0 0 1188 848" width="297" height="212" xmlns="http://www.w3.org/2000/svg">
<path transform="translate(477,194)" d="m0 0h33l11 2 4 4v3l-2 1-31 2-10 2-2 2 1 7 10 19 12 22 7 9 5 5 10 7 13 6 24 8 26 7 5 5 2 7h3l3-9 7-1h29l20-3 20-5 16-6 10-6 10-8 8-9 8-13 8-16 4-12-12-2-6-3-2-2 1-4 5-4 4-1h22l81 7 37 5 30 6 31 9 28 11 16 7 19 10 18 10 23 15 17 12 16 13 11 9 17 16 12 13 9 11 11 13 13 18 10 15 12 23 9 20 7 22 2 10 2 30 1 8v11l-4 17-8 23-10 19-10 14-12 13-11 10-14 10-16 9-14 7-20 7-17 5-20 4-27 3-21 1h-29l-20-8-29-6-33-8-9-2 7 12 12 17 8 10 9 11 17 17 11 9 13 12 2 1v2l4 2 9 10 9 13 6 1 7-2 2 2v8l-4 6-6 6-14 5-8 2-9 1h-17l-22-2-21-5-15-4h-13l-14 5-12 8-13 11-8 7-16 13-14 9-11 5-12 3h-9l-18-3-20-6-37-13-26-8-57-16-20-4h-21l-17 4-16 7-12 8-10 9-7 7-7 9-6 5-7 2h-8l-9-4-6-5-9-13-8-16-11-27-8-25-6-25-7-39-4-29-2-15-7 1-25 12-24 9-28 9-13 4-4 5-6 1-6-2-9 1-30 6-8 1h-19l-24-4-25-7-30-11-20-9-17-10-10-8-10-9-10-12-8-14-7-16-6-19-5-24-2-19v-25l2-21 5-26 7-23 9-21 10-19 13-19 9-11 9-10 14-14 8-7 10-9 26-20 19-13 19-12 21-12 25-13 29-13 29-11 27-9 42-11 36-8 33-6 36-5zm-28 112-1 2 4 6 8 5h6l1-5-6-5-7-3zm318 8-10 3-6 5-1 4 3 3h7l12-5 4-4-1-5zm-394 35-16 4-35 12-21 9-14 7-22 13-12 8-17 12-13 10-13 11-11 9-26 26-8 10-13 16-10 17-5 13-1 5v17l4 10 8 8 12 6 12 3 7 1h14l24-4 32-8 21-8 17-8 16-8 33-15 17-9 7-6 1-2v-37l3-38 6-56 3-14 2-7v-6zm457 23-4 6-4 18-6 40-5 33v24l4 16 5 6 10 4 30 9 23 5 31 4 21 1h26l23-2 20-4 14-5 17-9 13-10 8-10 1-3v-8l-5-10-8-10-9-10-12-11-17-12-20-12-29-15-26-12-22-8-19-5-23-4-31-6zm-73 1-4 4 2 4 2 2h9l1-1v-5l-5-4zm-323 3-2 2v6l2 3h12l5-4-1-5-2-2zm306 59v7h3l1-4-2-3zm-289 0-5 2-2 3v5l3 2 5-1 5-5-1-5zm244 5 2 7 8 11 10 11 8 7 4 5v5l-4 3-10-3-16-8-15-6-10-3 2 5 10 11 14 11 5 5-1 4-7 4-10-1-16-7-14-7h-3l3 9 6 7 14 8 10 11 9 11 9 9 5 6 8 7 15 12 15 10 18 10 22 11 31 12 25 8 52 13 36 8 10 1 1-1 1-11v-37l-3-19-5-15-6-9-3-2-5-1-34-3-30-6-28-8-25-9-21-10-13-9-8-7-7-11-6-11-9-10-11-11-14-11-10-5zm-214 24-28 10-24 11-17 10-22 14-18 12-25 17-19 12-16 9-13 6-18 7-6 7-2 56-1 23 2 5h8l35-10 26-9 26-11 17-9 16-10 16-13 14-12 13-12 13-11 11-9 15-15 12-9 7-7-1-2-10 2-9 2h-9l-2-5 1-5 4-6 8-8 7-6v-2l-16 4-15 6-5-1-2-2 1-8 5-8 7-7 17-13 1-3zm76 82-5 3-3 7v10l1 2 4-1 5-15v-6zm83 7v8l2 7 2 3h5l1-5-4-11-2-2z" fill="#3A3B3A"/>
<path transform="translate(626,348)" d="m0 0h15l13 4 8 5 6 9 4 10v13l-2 2v10l-3 11-8 13-8 11-11 12-14 11-15 11-11 8-6 3-6-1-19-9-16-8-8-6-12-11-7-7-7-10-6-12-4-14v-16l4-11 6-9 7-6 10-5 14-3 14 1 9 4 9 8 5 6 4-1 12-12 14-8z" fill="#FEDF0C"/>
<path transform="translate(661)" d="m0 0h31l25 7 21 8 11 6 10 9 7 9 6 14 4 16 3 20v16l-5 21-8 22-8 18-8 14-9 11-9 10-3 3h-2v2l-17 12-12 6-31 11-13 3h-21l-16-5-11-6-7-6-7-11-1-9 5 1 16 9 10 6 11 4 18 2 21-2 17-5 9-4 16-8 11-7 12-11 10-13 8-14 8-20 4-17 1-8v-25l-3-18-6-18-7-11-7-7-11-7-14-6-17-5-13-2h-22l-14 2-17 5-16 8-10 7-13 11-10 9-3 4 3 10v9l-5-2-13-9-4-2h-13l-10 5-5 6-3 7v9l3 9 7 8 6 3 24 1 1 1-1 7-10 6-10 2-11-3-5-4-7-11-5-13-1-5v-15l4-12 9-12 11-7 3-1h11l14 7 4-1 11-14 14-14 8-7 13-8 15-6z" fill="#3F403F"/>
<path transform="translate(929,185)" d="m0 0h9l16 3 21 7 26 11 25 12 24 13 23 14 22 15 19 14 27 18 4 5v6l-3 1-10-4-17-10-19-12-25-15-23-13-24-13-32-16-31-13-35-13-2-4z" fill="#3E3F3E"/>
<path transform="translate(126,257)" d="m0 0h6l2 3-1 6-7 8-22 16-16 13-14 11-7 7-11 9-18 18-13 17-12 16-4 4-5-1-4-4v-15l9-14 12-14 21-21 8-7 15-12 19-13 18-13 15-10z" fill="#3D3E3D"/>
<path transform="translate(574,128)" d="m0 0 2 1-1 10-6 21-9 27-5 22-3 22-1 21-4-2-6-8-1-3v-15l4-26 5-21 5-15 8-19 7-11z" fill="#414141"/>
<path transform="translate(120,208)" d="m0 0h10l1 5-8 5-30 12-25 12-24 12-14 5h-5l-1-1v-6l5-6 19-11 21-9 35-13z" fill="#404140"/>
<path transform="translate(954,144)" d="m0 0 10 1 37 12 24 10 13 7 1 1v6h-6l-25-11-27-9-32-9v-4z" fill="#434443"/>
<path transform="translate(699,160)" d="m0 0h4v10l-8 16-6 11-6 9-6 5-9-2-6-4-5-8-1-6 2-3 5 1 9 5 5-2 6-7 11-20z" fill="#404140"/>
<path transform="translate(641,136)" d="m0 0h3l-1 8-2 11 2 4h7l9-5 8-6h5l2 3-1 6-4 6-8 7-11 4h-7l-6-3-4-8v-13l4-9z" fill="#414241"/>
<path transform="translate(669,94)" d="m0 0h15l11 4 6 5-1 4-8 4-9 1h-10l-9-2-5-5-1-5 5-4z" fill="#3E3F3E"/>
<path transform="translate(552,77)" d="m0 0h8l13 4 6 7v9l-2 2h-9l-16-5-6-7v-6l3-3z" fill="#3D3E3D"/>
<path transform="translate(713,159)" d="m0 0 4 1 1 11 2 3h5l7-11 5 1v8l-4 10-7 6-2 1h-7l-6-5-2-5v-13l3-6z" fill="#424342"/>
<path transform="translate(732,107)" d="m0 0h6l7 5 8 10 2 4-1 7-2 2-4-1-8-7-7-9-1-2z" fill="#424342"/>
<path transform="translate(629,192)" d="m0 0 4 2 11 14-1 5-3 2-6-1-5-3-2-10z" fill="#414241"/>
</svg>
